<?xml version="1.0" standalone="no"?><svg xmlns="http://www.w3.org/2000/svg" viewBox="0 0 1440 320"><path fill="#0648B3" fill-opacity="1" d="M0,256L20,261.3C40,267,80,277,120,261.3C160,245,200,203,240,202.7C280,203,320,245,360,256C400,267,440,245,480,240C520,235,560,245,600,245.3C640,245,680,235,720,213.3C760,192,800,160,840,144C880,128,920,128,960,133.3C1000,139,1040,149,1080,133.3C1120,117,1160,75,1200,96C1240,117,1280,203,1320,224C1360,245,1400,203,1420,181.3L1440,160L1440,0L1420,0C1400,0,1360,0,1320,0C1280,0,1240,0,1200,0C1160,0,1120,0,1080,0C1040,0,1000,0,960,0C920,0,880,0,840,0C800,0,760,0,720,0C680,0,640,0,600,0C560,0,520,0,480,0C440,0,400,0,360,0C320,0,280,0,240,0C200,0,160,0,120,0C80,0,40,0,20,0L0,0Z"></path></svg>